<?xml version="1.0" encoding="UTF-8" standalone="no"?>
<svg width="100px" height="100px" viewBox="0 0 100 100" version="1.1" xmlns="http://www.w3.org/2000/svg" xmlns:xlink="http://www.w3.org/1999/xlink">
    <!-- Generator: Sketch 3.8.3 (29802) - http://www.bohemiancoding.com/sketch -->
    <title>Group 2</title>
    <desc>Created with Sketch.</desc>
    <defs></defs>
    <g id="Page-1" stroke="none" stroke-width="1" fill="none" fill-rule="evenodd">
        <g id="Group-2" fill="#000000">
            <g id="Group">
                <path d="M73.144,48.727 C73.144,61.507 62.782,71.871 50,71.871 C37.219,71.871 26.859,61.508 26.859,48.727 C26.859,45.834 27.413,43.08 28.38,40.526 L0,40.526 L0,75.001 C0,88.81 11.194,100 25,100 L75.001,100 C88.808,100 100,88.81 100,75.001 L100,40.526 L71.619,40.526 C72.588,43.079 73.144,45.834 73.144,48.727 L73.144,48.727 Z" id="Shape"></path>
                <circle id="Oval" cx="50" cy="48.726" r="13.889"></circle>
                <path d="M75.001,0.002 L26.317,0.002 L26.317,26.071 L20.85,26.071 L20.85,0.375 C18.948,0.691 17.113,1.204 15.383,1.925 L15.383,26.072 L9.917,26.072 L9.917,5.098 C3.9,9.663 0,16.869 0,25.003 L0,32.323 L33.678,32.323 C37.864,28.16 43.631,25.585 50,25.585 C56.369,25.585 62.135,28.16 66.32,32.323 L100,32.323 L100,25.003 C100,11.196 88.808,0.002 75.001,0.002 L75.001,0.002 Z M86.17,23.645 C86.17,25.194 84.91,26.455 83.359,26.455 L74.931,26.455 C73.377,26.455 72.12,25.198 72.12,23.645 L72.12,15.215 C72.12,13.664 73.377,12.404 74.931,12.404 L83.359,12.404 C84.91,12.404 86.17,13.661 86.17,15.215 L86.17,23.645 L86.17,23.645 Z" id="Shape"></path>
            </g>
        </g>
    </g>
</svg>