<?xml version="1.0" encoding="UTF-8" standalone="no"?>
<svg width="18px" height="18px" viewBox="0 0 18 18" version="1.1" xmlns="http://www.w3.org/2000/svg" xmlns:xlink="http://www.w3.org/1999/xlink">
    <!-- Generator: Sketch 40.3 (33839) - http://www.bohemiancoding.com/sketch -->
    <title>Shape</title>
    <desc>Created with Sketch.</desc>
    <defs></defs>
    <g id="businesscard-" stroke="none" stroke-width="1" fill="none" fill-rule="evenodd">
        <g id="Artboard" transform="translate(-241.000000, -213.000000)" fill="#FFFFFF">
            <g id="Group-2" transform="translate(226.000000, 70.000000)">
                <g id="Group" transform="translate(14.171198, 0.000000)">
                    <g id="spotify" transform="translate(0.828802, 143.000000)">
                        <g id="Spotify">
                            <path d="M9,0.2 C4.139,0.2 0.2,4.138 0.2,9 C0.2,13.859 4.139,17.8 9,17.8 C13.862,17.8 17.799,13.86 17.799,9 C17.799,4.139 13.863,0.2 9,0.2 L9,0.2 Z M12.478,13.502 C12.305,13.502 12.184,13.436 12.057,13.359 C10.868,12.638 9.395,12.26 7.799,12.26 C6.985,12.26 6.106,12.357 5.189,12.545 L5.077,12.573 C4.961,12.601 4.842,12.632 4.751,12.632 C4.38,12.632 4.09,12.344 4.09,11.976 C4.09,11.603 4.3,11.339 4.652,11.273 C5.748,11.023 6.78,10.901 7.804,10.901 C9.659,10.901 11.317,11.331 12.735,12.18 C12.978,12.322 13.131,12.486 13.131,12.848 C13.13,13.209 12.838,13.502 12.478,13.502 L12.478,13.502 Z M13.391,10.941 C13.184,10.941 13.048,10.862 12.928,10.792 C10.785,9.521 7.595,9.099 4.967,9.799 C4.923,9.812 4.883,9.824 4.847,9.836 C4.748,9.867 4.656,9.898 4.526,9.898 C4.094,9.898 3.743,9.545 3.743,9.11 C3.743,8.691 3.962,8.398 4.357,8.286 C5.37,8.008 6.321,7.824 7.69,7.824 C9.902,7.824 12.047,8.379 13.728,9.385 C14.034,9.56 14.173,9.799 14.173,10.156 C14.173,10.59 13.822,10.941 13.391,10.941 L13.391,10.941 Z M14.427,8.021 C14.232,8.021 14.112,7.974 13.932,7.877 C12.479,7.005 10.212,6.486 7.863,6.486 C6.639,6.486 5.527,6.621 4.557,6.883 C4.524,6.891 4.493,6.9 4.459,6.91 C4.356,6.941 4.227,6.978 4.094,6.978 C3.578,6.978 3.175,6.57 3.175,6.049 C3.175,5.596 3.429,5.25 3.855,5.124 C5.026,4.778 6.374,4.603 7.861,4.603 C10.539,4.603 13.087,5.198 14.852,6.234 C15.184,6.423 15.347,6.709 15.347,7.106 C15.347,7.619 14.943,8.021 14.427,8.021 L14.427,8.021 Z" id="Shape"></path>
                        </g>
                    </g>
                </g>
            </g>
        </g>
    </g>
</svg>